<svg xmlns="http://www.w3.org/2000/svg">
	<symbol id="decor-circles">
		<circle cx="2.37838" cy="8.02703" r="2.37838" fill="black"/>
		<circle cx="19.0271" cy="8.02703" r="2.37838" fill="black"/>
		<circle cx="35.6756" cy="8.02703" r="2.37838" fill="black"/>
		<circle cx="52.3243" cy="8.02703" r="2.37838" fill="black"/>
		<circle cx="68.973" cy="8.02703" r="2.37838" fill="black"/>
		<circle cx="85.6217" cy="8.02703" r="2.37838" fill="black"/>
		<circle cx="2.37838" cy="24.6757" r="2.37838" fill="black"/>
		<circle cx="19.0271" cy="24.6757" r="2.37838" fill="black"/>
		<circle cx="35.6756" cy="24.6757" r="2.37838" fill="black"/>
		<circle cx="52.3243" cy="24.6757" r="2.37838" fill="black"/>
		<circle cx="68.973" cy="24.6757" r="2.37838" fill="black"/>
		<circle cx="85.6217" cy="24.6757" r="2.37838" fill="black"/>
		<circle cx="2.37838" cy="41.3243" r="2.37838" fill="black"/>
		<circle cx="19.0271" cy="41.3243" r="2.37838" fill="black"/>
		<circle cx="35.6756" cy="41.3243" r="2.37838" fill="black"/>
		<circle cx="52.3243" cy="41.3243" r="2.37838" fill="black"/>
		<circle cx="68.973" cy="41.3243" r="2.37838" fill="black"/>
		<circle cx="85.6217" cy="41.3243" r="2.37838" fill="black"/>
		<circle cx="2.37838" cy="57.973" r="2.37838" fill="black"/>
		<circle cx="19.0271" cy="57.973" r="2.37838" fill="black"/>
		<circle cx="35.6756" cy="57.973" r="2.37838" fill="black"/>
		<circle cx="52.3243" cy="57.973" r="2.37838" fill="black"/>
		<circle cx="68.973" cy="57.973" r="2.37838" fill="black"/>
		<circle cx="85.6217" cy="57.973" r="2.37838" fill="black"/>
		<circle cx="2.37838" cy="74.6216" r="2.37838" fill="black"/>
		<circle cx="19.0271" cy="74.6216" r="2.37838" fill="black"/>
		<circle cx="35.6756" cy="74.6216" r="2.37838" fill="black"/>
		<circle cx="52.3243" cy="74.6216" r="2.37838" fill="black"/>
		<circle cx="68.973" cy="74.6216" r="2.37838" fill="black"/>
		<circle cx="85.6217" cy="74.6216" r="2.37838" fill="black"/>
		<circle cx="2.37838" cy="91.2703" r="2.37838" fill="black"/>
		<circle cx="19.0271" cy="91.2703" r="2.37838" fill="black"/>
		<circle cx="35.6756" cy="91.2703" r="2.37838" fill="black"/>
		<circle cx="52.3243" cy="91.2703" r="2.37838" fill="black"/>
		<circle cx="68.973" cy="91.2703" r="2.37838" fill="black"/>
		<circle cx="85.6217" cy="91.2703" r="2.37838" fill="black"/>
		<circle cx="2.37838" cy="107.919" r="2.37838" fill="black"/>
		<circle cx="19.0271" cy="107.919" r="2.37838" fill="black"/>
		<circle cx="35.6756" cy="107.919" r="2.37838" fill="black"/>
		<circle cx="52.3243" cy="107.919" r="2.37838" fill="black"/>
		<circle cx="68.973" cy="107.919" r="2.37838" fill="black"/>
		<circle cx="85.6217" cy="107.919" r="2.37838" fill="black"/>
	</symbol>
 
	<symbol id="document" fill="none">
		<path d="M14.1961 2.0184H4.37939C3.72851 2.0184 3.10428 2.27697 2.64403 2.73721C2.18379 3.19746 1.92522 3.82169 1.92522 4.47257V24.1059C1.92522 24.7568 2.18379 25.3811 2.64403 25.8413C3.10428 26.3015 3.72851 26.5601 4.37939 26.5601H19.1044C19.7553 26.5601 20.3795 26.3015 20.8398 25.8413C21.3 25.3811 21.5586 24.7568 21.5586 24.1059V9.38091L14.1961 2.0184Z" stroke="black" stroke-width="2.45417" stroke-linecap="round" stroke-linejoin="round"/>
		<path d="M14.1961 2.0184V9.38091H21.5586" stroke="black" stroke-width="2.45417" stroke-linecap="round" stroke-linejoin="round"/>
		<path d="M16.6504 15.5163H6.83369" stroke="black" stroke-width="2.45417" stroke-linecap="round" stroke-linejoin="round"/>
		<path d="M16.6504 20.4247H6.83369" stroke="black" stroke-width="2.45417" stroke-linecap="round" stroke-linejoin="round"/>
	</symbol>


	<symbol id="privilege-present" viewBox="0 0 48 48" fill="none">
		<path d="M17.8594 6.45L21.1219 12H21H14.25C12.1781 12 10.5 10.3219 10.5 8.25C10.5 6.17812 12.1781 4.5 14.25 4.5H14.4562C15.8531 4.5 17.1562 5.24063 17.8594 6.45ZM6 8.25C6 9.6 6.32812 10.875 6.9 12H3C1.34062 12 0 13.3406 0 15V21C0 22.6594 1.34062 24 3 24H45C46.6594 24 48 22.6594 48 21V15C48 13.3406 46.6594 12 45 12H41.1C41.6719 10.875 42 9.6 42 8.25C42 3.69375 38.3063 0 33.75 0H33.5437C30.5531 0 27.7781 1.58438 26.2594 4.1625L24 8.01562L21.7406 4.17188C20.2219 1.58437 17.4469 0 14.4562 0H14.25C9.69375 0 6 3.69375 6 8.25ZM37.5 8.25C37.5 10.3219 35.8219 12 33.75 12H27H26.8781L30.1406 6.45C30.8531 5.24063 32.1469 4.5 33.5437 4.5H33.75C35.8219 4.5 37.5 6.17812 37.5 8.25ZM3 27V43.5C3 45.9844 5.01562 48 7.5 48H21V27H3ZM27 48H40.5C42.9844 48 45 45.9844 45 43.5V27H27V48Z" fill="url(#paint0_linear_3_350)"/>
		<defs>
			<linearGradient id="paint0_linear_3_350" x1="21.3147" y1="48" x2="51.52" y2="32.3379" gradientUnits="userSpaceOnUse">
				<stop stop-color="#FBC81F"/>
				<stop offset="0.885" stop-color="#FFAF2E"/>
			</linearGradient>
		</defs>
	</symbol>
		

	<symbol id="privilege-present-iron" viewBox="0 0 48 48" fill="none">
		<path d="M17.8594 6.45L21.1219 12H21H14.25C12.1781 12 10.5 10.3219 10.5 8.25C10.5 6.17812 12.1781 4.5 14.25 4.5H14.4562C15.8531 4.5 17.1562 5.24063 17.8594 6.45ZM6 8.25C6 9.6 6.32812 10.875 6.9 12H3C1.34062 12 0 13.3406 0 15V21C0 22.6594 1.34062 24 3 24H45C46.6594 24 48 22.6594 48 21V15C48 13.3406 46.6594 12 45 12H41.1C41.6719 10.875 42 9.6 42 8.25C42 3.69375 38.3063 0 33.75 0H33.5437C30.5531 0 27.7781 1.58438 26.2594 4.1625L24 8.01562L21.7406 4.17188C20.2219 1.58437 17.4469 0 14.4562 0H14.25C9.69375 0 6 3.69375 6 8.25ZM37.5 8.25C37.5 10.3219 35.8219 12 33.75 12H27H26.8781L30.1406 6.45C30.8531 5.24063 32.1469 4.5 33.5437 4.5H33.75C35.8219 4.5 37.5 6.17812 37.5 8.25ZM3 27V43.5C3 45.9844 5.01562 48 7.5 48H21V27H3ZM27 48H40.5C42.9844 48 45 45.9844 45 43.5V27H27V48Z" fill="#Feae2d"/>
	</symbol>
</svg> 

