<svg xmlns="http://www.w3.org/2000/svg">
	<symbol id="decor-circles">
		<circle cx="2.37838" cy="8.02703" r="2.37838" fill="black"/>
		<circle cx="19.0271" cy="8.02703" r="2.37838" fill="black"/>
		<circle cx="35.6756" cy="8.02703" r="2.37838" fill="black"/>
		<circle cx="52.3243" cy="8.02703" r="2.37838" fill="black"/>
		<circle cx="68.973" cy="8.02703" r="2.37838" fill="black"/>
		<circle cx="85.6217" cy="8.02703" r="2.37838" fill="black"/>
		<circle cx="2.37838" cy="24.6757" r="2.37838" fill="black"/>
		<circle cx="19.0271" cy="24.6757" r="2.37838" fill="black"/>
		<circle cx="35.6756" cy="24.6757" r="2.37838" fill="black"/>
		<circle cx="52.3243" cy="24.6757" r="2.37838" fill="black"/>
		<circle cx="68.973" cy="24.6757" r="2.37838" fill="black"/>
		<circle cx="85.6217" cy="24.6757" r="2.37838" fill="black"/>
		<circle cx="2.37838" cy="41.3243" r="2.37838" fill="black"/>
		<circle cx="19.0271" cy="41.3243" r="2.37838" fill="black"/>
		<circle cx="35.6756" cy="41.3243" r="2.37838" fill="black"/>
		<circle cx="52.3243" cy="41.3243" r="2.37838" fill="black"/>
		<circle cx="68.973" cy="41.3243" r="2.37838" fill="black"/>
		<circle cx="85.6217" cy="41.3243" r="2.37838" fill="black"/>
		<circle cx="2.37838" cy="57.973" r="2.37838" fill="black"/>
		<circle cx="19.0271" cy="57.973" r="2.37838" fill="black"/>
		<circle cx="35.6756" cy="57.973" r="2.37838" fill="black"/>
		<circle cx="52.3243" cy="57.973" r="2.37838" fill="black"/>
		<circle cx="68.973" cy="57.973" r="2.37838" fill="black"/>
		<circle cx="85.6217" cy="57.973" r="2.37838" fill="black"/>
		<circle cx="2.37838" cy="74.6216" r="2.37838" fill="black"/>
		<circle cx="19.0271" cy="74.6216" r="2.37838" fill="black"/>
		<circle cx="35.6756" cy="74.6216" r="2.37838" fill="black"/>
		<circle cx="52.3243" cy="74.6216" r="2.37838" fill="black"/>
		<circle cx="68.973" cy="74.6216" r="2.37838" fill="black"/>
		<circle cx="85.6217" cy="74.6216" r="2.37838" fill="black"/>
		<circle cx="2.37838" cy="91.2703" r="2.37838" fill="black"/>
		<circle cx="19.0271" cy="91.2703" r="2.37838" fill="black"/>
		<circle cx="35.6756" cy="91.2703" r="2.37838" fill="black"/>
		<circle cx="52.3243" cy="91.2703" r="2.37838" fill="black"/>
		<circle cx="68.973" cy="91.2703" r="2.37838" fill="black"/>
		<circle cx="85.6217" cy="91.2703" r="2.37838" fill="black"/>
		<circle cx="2.37838" cy="107.919" r="2.37838" fill="black"/>
		<circle cx="19.0271" cy="107.919" r="2.37838" fill="black"/>
		<circle cx="35.6756" cy="107.919" r="2.37838" fill="black"/>
		<circle cx="52.3243" cy="107.919" r="2.37838" fill="black"/>
		<circle cx="68.973" cy="107.919" r="2.37838" fill="black"/>
		<circle cx="85.6217" cy="107.919" r="2.37838" fill="black"/>
	</symbol>
 
	<symbol id="document" fill="none">
		<path d="M14.1961 2.0184H4.37939C3.72851 2.0184 3.10428 2.27697 2.64403 2.73721C2.18379 3.19746 1.92522 3.82169 1.92522 4.47257V24.1059C1.92522 24.7568 2.18379 25.3811 2.64403 25.8413C3.10428 26.3015 3.72851 26.5601 4.37939 26.5601H19.1044C19.7553 26.5601 20.3795 26.3015 20.8398 25.8413C21.3 25.3811 21.5586 24.7568 21.5586 24.1059V9.38091L14.1961 2.0184Z" stroke="black" stroke-width="2.45417" stroke-linecap="round" stroke-linejoin="round"/>
		<path d="M14.1961 2.0184V9.38091H21.5586" stroke="black" stroke-width="2.45417" stroke-linecap="round" stroke-linejoin="round"/>
		<path d="M16.6504 15.5163H6.83369" stroke="black" stroke-width="2.45417" stroke-linecap="round" stroke-linejoin="round"/>
		<path d="M16.6504 20.4247H6.83369" stroke="black" stroke-width="2.45417" stroke-linecap="round" stroke-linejoin="round"/>
	</symbol>


	<symbol id="square" fill="none">
		<circle cx="3" cy="3" r="2" stroke="black" stroke-width="2"/>
		<circle cx="23" cy="3" r="2" stroke="black" stroke-width="2"/>
		<circle cx="3" cy="23" r="2" stroke="black" stroke-width="2"/>
		<circle cx="23" cy="23" r="2" stroke="black" stroke-width="2"/>
		<line x1="5" y1="3" x2="21" y2="3" stroke="black" stroke-width="2"/>
		<line x1="5" y1="23" x2="21" y2="23" stroke="black" stroke-width="2"/>
		<line x1="3" y1="21" x2="3" y2="5" stroke="black" stroke-width="2"/>
		<line x1="23" y1="21" x2="23" y2="5" stroke="black" stroke-width="2"/>
	</symbol>
		

	<symbol id="target" fill="none">
		<circle cx="13" cy="13" r="3" fill="black"/>
		<circle cx="13" cy="13" r="6.66667" stroke="black" stroke-width="2.66667"/>
		<circle cx="13" cy="13" r="12" stroke="black" stroke-width="2"/>
	</symbol>
</svg> 

