<svg xmlns="http://www.w3.org/2000/svg">
	<symbol id="decor-circles">
		<circle cx="2.37838" cy="8.02703" r="2.37838" fill="black"/>
		<circle cx="19.0271" cy="8.02703" r="2.37838" fill="black"/>
		<circle cx="35.6756" cy="8.02703" r="2.37838" fill="black"/>
		<circle cx="52.3243" cy="8.02703" r="2.37838" fill="black"/>
		<circle cx="68.973" cy="8.02703" r="2.37838" fill="black"/>
		<circle cx="85.6217" cy="8.02703" r="2.37838" fill="black"/>
		<circle cx="2.37838" cy="24.6757" r="2.37838" fill="black"/>
		<circle cx="19.0271" cy="24.6757" r="2.37838" fill="black"/>
		<circle cx="35.6756" cy="24.6757" r="2.37838" fill="black"/>
		<circle cx="52.3243" cy="24.6757" r="2.37838" fill="black"/>
		<circle cx="68.973" cy="24.6757" r="2.37838" fill="black"/>
		<circle cx="85.6217" cy="24.6757" r="2.37838" fill="black"/>
		<circle cx="2.37838" cy="41.3243" r="2.37838" fill="black"/>
		<circle cx="19.0271" cy="41.3243" r="2.37838" fill="black"/>
		<circle cx="35.6756" cy="41.3243" r="2.37838" fill="black"/>
		<circle cx="52.3243" cy="41.3243" r="2.37838" fill="black"/>
		<circle cx="68.973" cy="41.3243" r="2.37838" fill="black"/>
		<circle cx="85.6217" cy="41.3243" r="2.37838" fill="black"/>
		<circle cx="2.37838" cy="57.973" r="2.37838" fill="black"/>
		<circle cx="19.0271" cy="57.973" r="2.37838" fill="black"/>
		<circle cx="35.6756" cy="57.973" r="2.37838" fill="black"/>
		<circle cx="52.3243" cy="57.973" r="2.37838" fill="black"/>
		<circle cx="68.973" cy="57.973" r="2.37838" fill="black"/>
		<circle cx="85.6217" cy="57.973" r="2.37838" fill="black"/>
		<circle cx="2.37838" cy="74.6216" r="2.37838" fill="black"/>
		<circle cx="19.0271" cy="74.6216" r="2.37838" fill="black"/>
		<circle cx="35.6756" cy="74.6216" r="2.37838" fill="black"/>
		<circle cx="52.3243" cy="74.6216" r="2.37838" fill="black"/>
		<circle cx="68.973" cy="74.6216" r="2.37838" fill="black"/>
		<circle cx="85.6217" cy="74.6216" r="2.37838" fill="black"/>
		<circle cx="2.37838" cy="91.2703" r="2.37838" fill="black"/>
		<circle cx="19.0271" cy="91.2703" r="2.37838" fill="black"/>
		<circle cx="35.6756" cy="91.2703" r="2.37838" fill="black"/>
		<circle cx="52.3243" cy="91.2703" r="2.37838" fill="black"/>
		<circle cx="68.973" cy="91.2703" r="2.37838" fill="black"/>
		<circle cx="85.6217" cy="91.2703" r="2.37838" fill="black"/>
		<circle cx="2.37838" cy="107.919" r="2.37838" fill="black"/>
		<circle cx="19.0271" cy="107.919" r="2.37838" fill="black"/>
		<circle cx="35.6756" cy="107.919" r="2.37838" fill="black"/>
		<circle cx="52.3243" cy="107.919" r="2.37838" fill="black"/>
		<circle cx="68.973" cy="107.919" r="2.37838" fill="black"/>
		<circle cx="85.6217" cy="107.919" r="2.37838" fill="black"/>
	</symbol>

	<symbol id="decor-circles-small">
		<circle cx="1" cy="1" r="1" fill="black"/>
		<circle cx="8" cy="1" r="1" fill="black"/>
		<circle cx="15" cy="1" r="1" fill="black"/>
		<circle cx="22" cy="1" r="1" fill="black"/>
		<circle cx="29" cy="1" r="1" fill="black"/>
		<circle cx="36" cy="1" r="1" fill="black"/>
		<circle cx="1" cy="8" r="1" fill="black"/>
		<circle cx="1" cy="15" r="1" fill="black"/>
		<circle cx="1" cy="22" r="1" fill="black"/>
		<circle cx="1" cy="29" r="1" fill="black"/>
		<circle cx="1" cy="36" r="1" fill="black"/>
		<circle cx="1" cy="43" r="1" fill="black"/>
		<circle cx="1" cy="50" r="1" fill="black"/>
		<circle cx="1" cy="57" r="1" fill="black"/>
		<circle cx="8" cy="8" r="1" fill="black"/>
		<circle cx="8" cy="15" r="1" fill="black"/>
		<circle cx="8" cy="22" r="1" fill="black"/>
		<circle cx="8" cy="29" r="1" fill="black"/>
		<circle cx="8" cy="36" r="1" fill="black"/>
		<circle cx="8" cy="43" r="1" fill="black"/>
		<circle cx="8" cy="50" r="1" fill="black"/>
		<circle cx="8" cy="57" r="1" fill="black"/>
		<circle cx="15" cy="8" r="1" fill="black"/>
		<circle cx="15" cy="15" r="1" fill="black"/>
		<circle cx="15" cy="22" r="1" fill="black"/>
		<circle cx="15" cy="29" r="1" fill="black"/>
		<circle cx="15" cy="36" r="1" fill="black"/>
		<circle cx="15" cy="43" r="1" fill="black"/>
		<circle cx="15" cy="50" r="1" fill="black"/>
		<circle cx="15" cy="57" r="1" fill="black"/>
		<circle cx="22" cy="8" r="1" fill="black"/>
		<circle cx="22" cy="15" r="1" fill="black"/>
		<circle cx="22" cy="22" r="1" fill="black"/>
		<circle cx="22" cy="29" r="1" fill="black"/>
		<circle cx="22" cy="36" r="1" fill="black"/>
		<circle cx="22" cy="43" r="1" fill="black"/>
		<circle cx="22" cy="50" r="1" fill="black"/>
		<circle cx="22" cy="57" r="1" fill="black"/>
		<circle cx="29" cy="8" r="1" fill="black"/>
		<circle cx="29" cy="15" r="1" fill="black"/>
		<circle cx="29" cy="22" r="1" fill="black"/>
		<circle cx="29" cy="29" r="1" fill="black"/>
		<circle cx="29" cy="36" r="1" fill="black"/>
		<circle cx="29" cy="43" r="1" fill="black"/>
		<circle cx="29" cy="50" r="1" fill="black"/>
		<circle cx="29" cy="57" r="1" fill="black"/>
		<circle cx="36" cy="8" r="1" fill="black"/>
		<circle cx="36" cy="15" r="1" fill="black"/>
		<circle cx="36" cy="22" r="1" fill="black"/>
		<circle cx="36" cy="29" r="1" fill="black"/>
		<circle cx="36" cy="36" r="1" fill="black"/>
		<circle cx="36" cy="43" r="1" fill="black"/>
		<circle cx="36" cy="50" r="1" fill="black"/>
		<circle cx="36" cy="57" r="1" fill="black"/>
	</symbol>
 
	<symbol id="document" fill="none">
		<path d="M14.1961 2.0184H4.37939C3.72851 2.0184 3.10428 2.27697 2.64403 2.73721C2.18379 3.19746 1.92522 3.82169 1.92522 4.47257V24.1059C1.92522 24.7568 2.18379 25.3811 2.64403 25.8413C3.10428 26.3015 3.72851 26.5601 4.37939 26.5601H19.1044C19.7553 26.5601 20.3795 26.3015 20.8398 25.8413C21.3 25.3811 21.5586 24.7568 21.5586 24.1059V9.38091L14.1961 2.0184Z" stroke="black" stroke-width="2.45417" stroke-linecap="round" stroke-linejoin="round"/>
		<path d="M14.1961 2.0184V9.38091H21.5586" stroke="black" stroke-width="2.45417" stroke-linecap="round" stroke-linejoin="round"/>
		<path d="M16.6504 15.5163H6.83369" stroke="black" stroke-width="2.45417" stroke-linecap="round" stroke-linejoin="round"/>
		<path d="M16.6504 20.4247H6.83369" stroke="black" stroke-width="2.45417" stroke-linecap="round" stroke-linejoin="round"/>
	</symbol>

	<symbol id="square" fill="none">
		<circle cx="3" cy="3" r="2" stroke="black" stroke-width="2"/>
		<circle cx="23" cy="3" r="2" stroke="black" stroke-width="2"/>
		<circle cx="3" cy="23" r="2" stroke="black" stroke-width="2"/>
		<circle cx="23" cy="23" r="2" stroke="black" stroke-width="2"/>
		<line x1="5" y1="3" x2="21" y2="3" stroke="black" stroke-width="2"/>
		<line x1="5" y1="23" x2="21" y2="23" stroke="black" stroke-width="2"/>
		<line x1="3" y1="21" x2="3" y2="5" stroke="black" stroke-width="2"/>
		<line x1="23" y1="21" x2="23" y2="5" stroke="black" stroke-width="2"/>
	</symbol>
		
	<symbol id="target" fill="none">
		<circle cx="13" cy="13" r="3" fill="black"/>
		<circle cx="13" cy="13" r="6.66667" stroke="black" stroke-width="2.66667"/>
		<circle cx="13" cy="13" r="12" stroke="black" stroke-width="2"/>
	</symbol>
	
	<symbol id="home" >
		<path d="M20.6181 6.4147L14.0355 1.80914C12.2412 0.552045 9.48705 0.620615 7.76139 1.95771L2.03588 6.42613C0.89306 7.31752 -0.00976562 9.14603 -0.00976562 10.586V18.4714C-0.00976562 21.3856 2.35587 23.7627 5.27005 23.7627H17.5896C20.5038 23.7627 22.8694 21.397 22.8694 18.4828V10.7345C22.8694 9.19175 21.8752 7.29467 20.6181 6.4147ZM12.2869 19.1914C12.2869 19.66 11.8984 20.0485 11.4298 20.0485C10.9613 20.0485 10.5727 19.66 10.5727 19.1914V15.7629C10.5727 15.2944 10.9613 14.9058 11.4298 14.9058C11.8984 14.9058 12.2869 15.2944 12.2869 15.7629V19.1914Z"/>
	</symbol>

	<symbol id="statistics" >
		<path d="M17.086 0.906319H7.50915C3.3493 0.906319 0.869385 3.38623 0.869385 7.54609V17.1115C0.869385 21.2828 3.3493 23.7627 7.50915 23.7627H17.0745C21.2344 23.7627 23.7143 21.2828 23.7143 17.1229V7.54609C23.7257 3.38623 21.2458 0.906319 17.086 0.906319ZM9.90907 17.1229C9.90907 17.8543 9.31481 18.4486 8.57197 18.4486C7.84057 18.4486 7.24631 17.8543 7.24631 17.1229V13.3973C7.24631 12.6659 7.84057 12.0716 8.57197 12.0716C9.31481 12.0716 9.90907 12.6659 9.90907 13.3973V17.1229ZM17.3488 17.1229C17.3488 17.8543 16.7545 18.4486 16.0231 18.4486C15.2803 18.4486 14.686 17.8543 14.686 17.1229V7.54609C14.686 6.81468 15.2803 6.22042 16.0231 6.22042C16.7545 6.22042 17.3488 6.81468 17.3488 7.54609V17.1229Z"/>
	</symbol>

	<symbol id="bell" >
		<path d="M18.6595 13.1445L17.4328 11.1037C17.1615 10.6586 16.9226 9.80103 16.9226 9.27998V7.25003C16.9226 3.30955 13.7203 0.107224 9.79068 0.107224C5.85019 0.118079 2.64787 3.30955 2.64787 7.25003V9.26912C2.64787 9.79018 2.40905 10.6477 2.14853 11.0928L0.921873 13.1336C0.455094 13.9261 0.34654 14.8271 0.639634 15.6086C0.932728 16.4011 1.5949 17.0307 2.46333 17.3129C3.63571 17.7037 4.81894 17.986 6.02388 18.1922C6.14329 18.2139 6.2627 18.2248 6.38211 18.2465C6.53408 18.2682 6.69691 18.2899 6.85974 18.3116C7.14198 18.355 7.42422 18.3876 7.71731 18.4093C8.4012 18.4744 9.09594 18.507 9.79068 18.507C10.4746 18.507 11.1585 18.4744 11.8315 18.4093C12.0812 18.3876 12.3308 18.3659 12.5696 18.3333C12.765 18.3116 12.9604 18.2899 13.1558 18.2573C13.2752 18.2465 13.3947 18.2248 13.5141 18.2031C14.7299 18.0077 15.9348 17.7037 17.1072 17.3129C17.943 17.0307 18.5835 16.4011 18.8874 15.5978C19.1914 14.7836 19.1046 13.8935 18.6595 13.1445ZM10.5831 8.73721C10.5831 9.19314 10.214 9.56222 9.75811 9.56222C9.30219 9.56222 8.93311 9.19314 8.93311 8.73721V5.37206C8.93311 4.91614 9.30219 4.54705 9.75811 4.54705C10.214 4.54705 10.5831 4.91614 10.5831 5.37206V8.73721Z"/>
		<path d="M12.8413 19.6025C12.3853 20.8617 11.1804 21.7627 9.76921 21.7627C8.91164 21.7627 8.06492 21.4153 7.46788 20.7965C7.12051 20.4709 6.85998 20.0367 6.70801 19.5916C6.84913 19.6133 6.99025 19.6242 7.14222 19.6459C7.39189 19.6784 7.65242 19.711 7.91295 19.7327C8.5317 19.787 9.16131 19.8196 9.79092 19.8196C10.4097 19.8196 11.0284 19.787 11.6363 19.7327C11.8643 19.711 12.0923 19.7002 12.3094 19.6676C12.483 19.6459 12.6567 19.6242 12.8413 19.6025Z"/>
	</symbol>

	<symbol id="gear" >
		<path d="M20.7518 7.79869C18.6833 7.79869 17.8376 6.33589 18.8661 4.54166C19.4604 3.5017 19.1061 2.17603 18.0661 1.58177L16.0891 0.450378C15.1862 -0.0867462 14.0206 0.233243 13.4834 1.13607L13.3577 1.3532C12.3292 3.14743 10.6378 3.14743 9.59787 1.3532L9.47216 1.13607C8.95789 0.233243 7.79222 -0.0867462 6.88939 0.450378L4.91232 1.58177C3.87235 2.17603 3.51808 3.51313 4.11235 4.55309C5.15231 6.33589 4.30662 7.79869 2.23813 7.79869C1.0496 7.79869 0.0667725 8.77009 0.0667725 9.97005V11.9814C0.0667725 13.1699 1.03817 14.1528 2.23813 14.1528C4.30662 14.1528 5.15231 15.6156 4.11235 17.4098C3.51808 18.4498 3.87235 19.7754 4.91232 20.3697L6.88939 21.5011C7.79222 22.0382 8.95789 21.7182 9.49502 20.8154L9.62073 20.5982C10.6493 18.804 12.3406 18.804 13.3806 20.5982L13.5063 20.8154C14.0434 21.7182 15.2091 22.0382 16.1119 21.5011L18.089 20.3697C19.129 19.7754 19.4832 18.4383 18.889 17.4098C17.849 15.6156 18.6947 14.1528 20.7632 14.1528C21.9517 14.1528 22.9345 13.1814 22.9345 11.9814V9.97005C22.9231 8.78152 21.9517 7.79869 20.7518 7.79869ZM11.4949 14.6899C9.4493 14.6899 7.78079 13.0214 7.78079 10.9757C7.78079 8.93008 9.4493 7.26157 11.4949 7.26157C13.5406 7.26157 15.2091 8.93008 15.2091 10.9757C15.2091 13.0214 13.5406 14.6899 11.4949 14.6899Z"/>
	</symbol>

	
	<symbol id="plus" >
		<path d="M1.6665 10.0664H17.6665"  stroke-width="2.5" stroke-linecap="round" stroke-linejoin="round"/>
		<path d="M9.6665 18.0664V2.06641"  stroke-width="2.5" stroke-linecap="round" stroke-linejoin="round"/>
	</symbol>
</svg> 


